<svg id="Layer_1" data-name="Layer 1" xmlns="http://www.w3.org/2000/svg" viewBox="0 0 256 256"><path d="M127.75,45.46q29.9,0,59.78,0c11.47,0,20.21,7.25,22.29,18.37a24.25,24.25,0,0,1,.28,4.43q0,59.46,0,118.92c0,10.92-6.18,19.34-16.23,22.09a26.29,26.29,0,0,1-6.91.8c-39.42,0-78.85-.07-118.28.09-12.51,0-21.31-8.53-22.93-18.48a27.25,27.25,0,0,1-.28-4.43q0-59.46,0-118.92c0-11.73,7.09-20.43,18.29-22.57a26.78,26.78,0,0,1,5.07-.3Q98.29,45.45,127.75,45.46Zm63.18,19.25H64.72V190.84H190.93Z"/><path d="M147.24,94.68H119.39c-3.31,0-3.72-.41-3.72-3.81,0-4.1,0-8.2,0-12.3,0-2.42.59-3,3-3q29.15,0,58.28,0c2.68,0,3,.36,3,3.12v58.07c0,2.57-.53,3.1-3.1,3.11-4.31,0-8.62,0-12.93,0-2.53,0-3.07-.59-3.07-3.17q0-12.93,0-25.85v-2.5c-.89.84-1.5,1.37-2.08,2L90.92,178.18c-2.48,2.49-2.87,2.49-5.3.07l-8.09-8.09c-2.67-2.67-2.68-3-.06-5.6l67.88-67.89C145.88,96.14,146.39,95.58,147.24,94.68Z"/></svg>