<svg id="Layer_1" data-name="Layer 1" xmlns="http://www.w3.org/2000/svg" viewBox="0 0 256 256"><defs><style>.cls-1{fill:#231f20;}.cls-2{fill:#fff;}</style></defs><rect class="cls-1" x="60.33" y="64.71" width="137.48" height="137.48"/><path class="cls-1" d="M127.75,47.59c19.93,0,39.85,0,59.78,0,11.47,0,20.21,7.25,22.29,18.37a24.25,24.25,0,0,1,.28,4.43q0,59.46,0,118.92c0,10.92-6.18,19.34-16.23,22.09a26.29,26.29,0,0,1-6.91.8c-39.42,0-78.85-.07-118.28.09-12.51.05-21.31-8.53-22.93-18.48a27.25,27.25,0,0,1-.28-4.43q0-59.46,0-118.92c0-11.74,7.09-20.43,18.29-22.58a27.63,27.63,0,0,1,5.07-.29Q98.29,47.58,127.75,47.59Zm63.18,19.25H64.72V193H190.93Z"/><path class="cls-2" d="M147.24,96.81H119.39c-3.31,0-3.72-.42-3.72-3.81,0-4.1,0-8.2,0-12.3,0-2.43.59-3,3-3H177c2.68,0,3,.36,3,3.12V138.9c0,2.57-.53,3.1-3.1,3.11-4.31,0-8.62,0-12.93,0-2.53,0-3.07-.59-3.07-3.17q0-12.93,0-25.86v-2.49c-.89.83-1.5,1.37-2.08,2L90.92,180.31c-2.48,2.49-2.87,2.49-5.3.07l-8.09-8.09c-2.67-2.67-2.68-3-.06-5.6L145.35,98.8C145.88,98.27,146.39,97.71,147.24,96.81Z"/><path class="cls-2" d="M11.65,287.64h-319.3m159.4-242.18q-29.46,0-58.92,0a26.78,26.78,0,0,0-5.07.3c-11.2,2.14-18.28,10.84-18.29,22.57q0,59.46,0,118.92a27.25,27.25,0,0,0,.28,4.43c1.62,10,10.42,18.53,22.93,18.48,39.43-.16,78.86-.05,118.28-.09a26.29,26.29,0,0,0,6.91-.8c10-2.75,16.23-11.17,16.23-22.09q.06-59.46,0-118.92a24.25,24.25,0,0,0-.28-4.43C-68.26,52.73-77,45.5-88.47,45.48Q-118.36,45.42-148.25,45.46Z"/></svg>