<svg id="Layer_1" data-name="Layer 1" xmlns="http://www.w3.org/2000/svg" viewBox="0 0 256 256"><defs><style>.cls-1{fill:#ee2f24;}.cls-2{fill:none;stroke:#ed1c24;stroke-miterlimit:10;stroke-width:6px;}.cls-3{fill:#fff;}</style></defs><path class="cls-1" d="M102,92.13v71.74L164.58,128Z"/><path class="cls-2" d="M126.78,208.4c-15.41,0-31.73-.33-48.5-1-13.42-.51-23.64-1.19-33.12-2.18L42.74,205c-4.38-.43-8.52-.83-12.16-2.16-8.8-3.22-14.07-9.32-16.13-18.65A186.3,186.3,0,0,1,11,158.76a391.31,391.31,0,0,1-.87-45.08c.61-16.43,1.62-30.12,4.57-43.52C16.62,61.59,24.66,54,33.43,52.5a308.13,308.13,0,0,1,34.25-3.43c17.54-1,36.14-1.49,56.87-1.49q7.06,0,14.13.07c11.21.11,23.26.38,39.08.88,11.7.37,22.14,1,31.91,1.9l1.05.09c5.33.49,10.36.95,14.8,2.7,8.71,3.43,13.91,9.71,15.89,19.2a212.57,212.57,0,0,1,3.75,28.15,367.61,367.61,0,0,1,.52,44.89,252.87,252.87,0,0,1-4.54,39.85c-1.78,8.6-9.53,16.42-18,18.2a182.21,182.21,0,0,1-22.43,2.78c-11.15.92-22.59,1.3-33.65,1.68l-3,.1c-5.95.2-11.93.26-18.56.32l-7.33,0Z"/><path class="cls-3" d="M563.65,287.64H244.35M403.75,45.46q-29.46,0-58.92,0a26.78,26.78,0,0,0-5.07.3c-11.2,2.14-18.28,10.84-18.29,22.57q0,59.46,0,118.92a27.25,27.25,0,0,0,.28,4.43c1.62,10,10.42,18.53,22.93,18.48,39.43-.16,78.86-.05,118.28-.09a26.29,26.29,0,0,0,6.91-.8c10.05-2.75,16.23-11.17,16.23-22.09q.06-59.46,0-118.92a24.25,24.25,0,0,0-.28-4.43C483.74,52.73,475,45.5,463.53,45.48Q433.64,45.42,403.75,45.46Z"/></svg>