<svg id="Layer_1" data-name="Layer 1" xmlns="http://www.w3.org/2000/svg" viewBox="0 0 256 256"><defs><style>.cls-1{fill:#ee2f24;}.cls-2{fill:none;}</style></defs><path class="cls-1" d="M126.83,211.76c-15.62,0-31.24-.35-46.85-.94-10.77-.41-21.54-1-32.26-2.13-5.24-.55-10.57-.85-15.56-2.67C21.49,202.11,15,194.46,12.55,183.39a184.3,184.3,0,0,1-3.43-25.32A381.26,381.26,0,0,1,8.28,114c.53-14.42,1.42-28.82,4.54-43C15.2,60.17,25.12,50.9,36,49a303.42,303.42,0,0,1,33.64-3.38c22.87-1.3,45.76-1.59,68.65-1.36,12.57.12,25.13.45,37.69.84,10.37.33,20.73.89,31.06,1.85,5.75.53,11.56,1,17,3.11,10.64,4.19,16.93,12,19.25,23.16a212.91,212.91,0,0,1,3.72,27.9,361.62,361.62,0,0,1,.52,43.92,252.16,252.16,0,0,1-4.5,39.3c-2.21,10.73-11.59,20.29-22.38,22.54a182.2,182.2,0,0,1-22.35,2.79c-11.81,1-23.66,1.32-35.5,1.72-6,.21-12,.26-18,.32S132.83,211.76,126.83,211.76Zm-22-119.64v71.74L167.41,128Z"/><path class="cls-2" d="M104.57,92.13,167.17,128l-62.6,35.87Z"/></svg>