<?xml version="1.0" encoding="utf-8"?>
<!-- Generator: Adobe Illustrator 26.0.3, SVG Export Plug-In . SVG Version: 6.00 Build 0)  -->
<svg version="1.1" id="Layer_1" xmlns="http://www.w3.org/2000/svg" xmlns:xlink="http://www.w3.org/1999/xlink" x="0px" y="0px"
	 viewBox="0 0 1000 1000" style="enable-background:new 0 0 1000 1000;" xml:space="preserve">
<style type="text/css">
	.st0{fill:#3C2415;}
	.st1{fill:#562C1D;stroke:#3C2415;stroke-width:10;stroke-miterlimit:10;}
	.st2{fill:#C8E6ED;stroke:#A78930;stroke-width:15;stroke-miterlimit:10;}
	.st3{display:none;opacity:0.5;}
	.st4{display:inline;fill:#FFFFFF;}
</style>
<path class="st0" d="M452.7,388.84c-18.52-18.46-48.55-18.46-67.07,0v0c-18.52,18.46-18.52,48.38,0,66.84l93.86,93.35
	c18.33,18.23,47.89,18.39,66.41,0.36l0,0c18.95-18.45,19.11-48.84,0.36-67.49L452.7,388.84z"/>
<path class="st1" d="M301.78,168.5c-35.15-35.03-92.15-35.03-127.3,0v0c-35.15,35.03-35.15,91.83,0,126.86l178.13,177.17
	c34.79,34.6,90.89,34.9,126.05,0.68l0,0c35.97-35.01,36.28-92.7,0.69-128.1L301.78,168.5z"/>
<ellipse class="st1" cx="674.59" cy="667.49" rx="257.37" ry="256.49"/>
<ellipse class="st2" cx="674.59" cy="667.49" rx="173.4" ry="172.81"/>
<g class="st3">
	<path class="st4" d="M680.43,784.85L680.43,784.85c0-9.78,7.08-18.05,16.71-19.72c40.51-7.04,72.54-39.22,79.54-79.9
		c1.66-9.64,9.94-16.74,19.73-16.74h0c12.39,0,21.81,11.15,19.73,23.35c-9.8,57.43-55.08,102.87-112.33,112.73
		C691.6,806.68,680.43,797.24,680.43,784.85z"/>
</g>
</svg>
